<?xml version="1.0" standalone="no"?>
<!DOCTYPE svg PUBLIC "-//W3C//DTD SVG 20010904//EN"
 "http://www.w3.org/TR/2001/REC-SVG-20010904/DTD/svg10.dtd">
<svg version="1.0" xmlns="http://www.w3.org/2000/svg"
 width="500.000000pt" height="500.000000pt" viewBox="0 0 500.000000 500.000000"
 preserveAspectRatio="xMidYMid meet">

<g transform="translate(0.000000,500.000000) scale(0.100000,-0.100000)"
fill="#000000" stroke="none">
<path d="M1886 4294 c-34 -34 -9 -78 41 -72 22 2 29 9 31 29 3 28 -20 59 -43
59 -7 0 -21 -7 -29 -16z"/>
<path d="M2651 4286 c-17 -20 -4 -56 20 -56 24 0 36 27 22 48 -14 22 -28 25
-42 8z"/>
<path d="M1681 4252 c-15 -28 -14 -32 9 -32 21 0 26 16 11 39 -7 11 -11 10
-20 -7z"/>
<path d="M2875 4199 c-10 -15 1 -23 20 -15 9 3 13 10 10 16 -8 13 -22 13 -30
-1z"/>
<path d="M2820 4180 c0 -5 7 -10 15 -10 8 0 15 5 15 10 0 6 -7 10 -15 10 -8 0
-15 -4 -15 -10z"/>
<path d="M3396 4161 c-4 -5 -2 -12 3 -15 5 -4 12 -2 15 3 4 5 2 12 -3 15 -5 4
-12 2 -15 -3z"/>
<path d="M1805 4130 c4 -6 11 -8 16 -5 14 9 11 15 -7 15 -8 0 -12 -5 -9 -10z"/>
<path d="M3652 4118 c-3 -23 -50 -58 -78 -58 -27 0 -32 -15 -8 -24 57 -22 97
5 91 61 -2 21 -4 30 -5 21z"/>
<path d="M1643 4113 c-22 -8 -15 -43 7 -43 13 0 20 7 20 19 0 22 -9 30 -27 24z"/>
<path d="M1536 4033 c-11 -11 -6 -23 9 -23 8 0 15 4 15 9 0 13 -16 22 -24 14z"/>
<path d="M3270 4031 c14 -5 21 -9 16 -10 -5 -1 -3 -8 4 -16 20 -24 -33 -30
-160 -16 -86 9 -359 13 -347 5 1 -1 43 -36 92 -78 110 -94 157 -145 148 -159
-3 -5 -2 -7 4 -4 5 4 16 -5 23 -18 7 -14 17 -25 22 -25 4 0 8 -4 8 -9 0 -5 28
-48 63 -96 84 -116 207 -341 207 -379 0 -6 4 -16 8 -21 15 -17 54 -155 48
-171 -7 -19 -42 -18 -50 2 -3 9 -6 27 -6 40 0 13 -4 24 -9 24 -5 0 -12 10 -16
23 -4 12 -8 24 -9 27 -15 42 -48 100 -68 119 -15 14 -23 31 -20 40 4 10 1 13
-11 8 -11 -4 -25 7 -46 40 -17 26 -31 53 -31 61 0 8 -6 12 -14 9 -10 -4 -13
-1 -10 7 3 7 -2 21 -11 30 -15 15 -15 16 5 16 18 0 20 4 14 23 -9 28 -19 43
-80 113 -247 289 -502 402 -917 407 -145 2 -199 -11 -297 -73 -25 -15 -52 -30
-60 -33 -8 -3 8 -6 35 -6 48 -1 85 -14 74 -25 -3 -4 -51 -13 -107 -21 -173
-26 -398 -111 -552 -209 -95 -61 -247 -205 -325 -308 -142 -188 -199 -334
-241 -614 -15 -104 -29 -137 -46 -111 -12 18 -8 -85 7 -183 33 -217 129 -398
311 -587 71 -75 95 -106 99 -133 11 -63 67 -210 104 -271 86 -141 230 -280
372 -357 41 -22 102 -58 135 -79 78 -52 127 -73 259 -116 130 -41 188 -54 312
-66 175 -18 408 22 576 98 46 21 85 30 152 35 206 16 480 89 640 172 118 60
199 122 287 218 40 44 114 123 163 175 190 202 317 451 356 696 28 182 8 416
-51 576 -47 128 -151 312 -229 402 -15 18 -30 41 -33 52 -39 138 -141 338
-223 438 -65 79 -173 173 -250 219 -77 47 -223 111 -234 103 -5 -3 -11 -1 -13
5 -1 5 -25 12 -53 15 -36 3 -43 2 -25 -4z m57 -57 c-3 -3 -12 -4 -19 -1 -8 3
-5 6 6 6 11 1 17 -2 13 -5z m-1362 -84 c-8 -12 -52 -13 -59 -2 -3 5 11 9 30
10 20 1 32 -3 29 -8z m477 -46 c135 -43 353 -161 463 -251 98 -81 239 -236
296 -327 13 -22 51 -91 84 -155 56 -109 62 -116 93 -119 27 -3 34 1 42 24 6
15 8 36 4 48 -71 249 -140 386 -301 592 -59 76 -74 104 -55 104 4 0 41 -13 83
-29 l76 -28 18 29 c20 34 50 47 108 49 23 1 32 4 19 6 -12 2 -20 9 -17 14 16
25 95 -4 149 -54 25 -24 36 -44 16 -32 -5 3 -10 0 -10 -7 0 -9 -3 -9 -10 2 -5
8 -10 11 -10 7 0 -4 -17 5 -37 20 -32 25 -35 26 -25 6 38 -70 -21 -153 -108
-153 -38 0 -31 -16 10 -25 21 -5 44 0 76 15 25 12 46 21 48 19 1 -2 12 -17 24
-32 15 -21 20 -37 15 -58 -4 -21 5 -50 35 -111 61 -123 81 -216 83 -383 1
-116 -2 -154 -20 -219 -11 -44 -21 -87 -21 -95 0 -39 -68 -226 -113 -311 -67
-127 -117 -199 -198 -287 -98 -105 -155 -183 -210 -285 -53 -96 -60 -131 -30
-148 63 -33 174 23 330 168 137 128 313 344 383 471 9 17 22 31 27 31 13 0
111 -305 111 -344 0 -34 -18 -69 -31 -61 -5 4 -9 2 -9 -4 0 -17 -63 -70 -96
-81 -33 -11 -60 -10 -84 5 -13 8 -13 7 -1 -8 7 -9 19 -17 25 -17 7 0 20 -6 29
-13 15 -11 15 -16 -3 -69 -28 -84 -104 -238 -138 -277 -32 -38 -62 -38 -62 0
0 29 -27 59 -54 59 -12 0 -32 9 -46 20 -35 27 -56 25 -82 -10 -12 -17 -25 -30
-29 -30 -4 0 -21 13 -37 30 -17 16 -40 30 -51 30 -11 0 -70 -13 -129 -30 -289
-78 -554 -78 -794 1 -49 16 -179 74 -290 130 -219 111 -229 113 -271 57 l-20
-27 36 -73 c23 -47 60 -99 102 -143 49 -51 68 -78 70 -101 4 -43 9 -52 98
-148 42 -47 74 -87 69 -90 -30 -18 -240 67 -348 142 -70 49 -242 203 -267 241
-23 34 -63 161 -89 281 -14 65 -22 146 -25 255 -4 149 -2 171 26 313 17 84 31
162 31 173 0 29 -44 69 -76 69 -15 0 -36 -7 -46 -17 -19 -17 -25 -39 -8 -28
18 11 11 -20 -13 -55 -13 -19 -41 -71 -63 -116 -21 -44 -47 -85 -58 -90 -10
-5 -18 -13 -16 -18 1 -5 -5 -13 -14 -18 -9 -5 -16 -14 -16 -20 0 -29 -52 -178
-62 -178 -28 0 34 399 88 567 65 200 143 327 326 530 250 278 258 289 239 329
-6 13 -25 33 -43 44 -22 13 -27 21 -17 24 189 65 244 80 369 101 80 13 188 26
240 30 110 7 156 19 170 45 15 29 3 47 -61 86 -32 19 -59 38 -59 41 0 10 76
-6 162 -33z m1624 -1441 c4 -16 8 -30 9 -33 4 -12 15 -57 21 -85 4 -16 6 -85
6 -152 -2 -173 -26 -271 -109 -463 -85 -194 -211 -348 -267 -327 -26 10 -18
46 25 116 81 128 126 265 140 431 19 217 19 218 48 236 14 10 30 23 34 31 4 7
14 13 20 13 7 0 25 25 40 55 24 47 27 59 18 92 -11 42 -11 113 0 113 4 0 10
-12 15 -27z m-2307 -669 c4 3 8 -9 9 -25 2 -26 0 -28 -16 -18 -11 7 -18 21
-17 33 3 29 6 33 12 18 2 -6 8 -10 12 -8z m1687 -249 c12 -31 -43 -112 -151
-220 -101 -101 -119 -115 -225 -168 -183 -91 -335 -120 -506 -97 -110 14 -238
56 -273 88 l-26 24 35 -7 c19 -4 53 -11 75 -16 61 -13 143 -11 215 5 36 8 108
24 160 36 159 36 238 67 345 137 55 36 114 78 130 93 17 15 50 40 75 55 25 16
47 31 50 35 7 10 73 50 83 50 4 0 10 -7 13 -15z"/>
<path d="M2160 3560 c-121 -26 -222 -64 -322 -124 -85 -50 -87 -51 -69 -70 17
-16 24 -17 72 -6 85 18 326 24 441 11 57 -7 144 -23 193 -36 50 -13 91 -22 93
-20 1 1 -12 10 -30 18 -18 9 -28 17 -23 17 6 0 4 4 -4 9 -22 14 -22 41 0 41
10 0 19 5 19 10 0 6 20 19 44 29 32 14 45 26 48 45 4 22 -1 29 -34 46 -46 24
-198 50 -283 49 -33 0 -98 -9 -145 -19z"/>
<path d="M3400 3361 c0 -12 5 -21 10 -21 6 0 10 6 10 14 0 8 -4 18 -10 21 -5
3 -10 -3 -10 -14z"/>
<path d="M1752 3318 c-17 -17 -15 -48 3 -48 22 0 38 35 22 49 -10 8 -17 7 -25
-1z"/>
<path d="M1645 3240 c-11 -17 5 -32 21 -19 8 6 14 15 14 20 0 12 -27 11 -35
-1z"/>
<path d="M1814 3150 c-12 -5 -53 -40 -91 -78 -210 -209 -269 -602 -136 -890
25 -52 136 -202 151 -202 4 0 23 -15 41 -32 21 -19 32 -26 28 -15 -3 9 -3 17
2 17 4 0 7 17 5 38 -2 21 4 47 12 60 8 12 12 27 9 32 -11 18 5 32 21 19 11 -9
14 -9 14 0 0 18 40 3 75 -28 l30 -26 -30 34 c-16 19 -36 41 -43 49 -50 56
-108 166 -136 261 -41 141 5 475 89 641 14 28 25 67 25 90 0 35 -3 40 -22 39
-13 0 -33 -4 -44 -9z"/>
<path d="M1571 3136 c-12 -14 -5 -26 16 -26 15 0 18 26 4 34 -5 3 -14 0 -20
-8z"/>
<path d="M2350 3120 c-153 -27 -314 -148 -373 -280 -60 -135 -61 -306 -3 -417
12 -23 12 -17 8 52 -9 145 40 265 160 391 110 116 182 142 408 146 102 3 131
0 159 -14 53 -28 19 7 -54 54 -90 59 -209 85 -305 68z"/>
<path d="M3245 3050 c3 -14 8 -32 10 -40 50 -172 72 -331 61 -430 -11 -97 -12
-106 -19 -117 -9 -14 -39 -164 -34 -169 8 -8 56 173 66 249 19 137 14 254 -14
352 -23 79 -84 214 -70 155z"/>
<path d="M1427 3054 c-14 -14 -7 -35 11 -32 9 2 17 10 17 17 0 16 -18 25 -28
15z"/>
<path d="M1404 2955 c-4 -8 -3 -23 0 -32 6 -15 8 -15 23 -1 16 17 12 48 -7 48
-6 0 -13 -7 -16 -15z"/>
<path d="M3533 2963 c-18 -6 -16 -23 1 -23 17 0 30 16 19 23 -5 2 -14 2 -20 0z"/>
<path d="M3453 2884 c-26 -28 -29 -44 -10 -44 22 0 57 31 57 51 0 25 -20 22
-47 -7z"/>
<path d="M1340 2840 c0 -15 5 -20 18 -18 9 2 17 10 17 18 0 8 -8 16 -17 18
-13 2 -18 -3 -18 -18z"/>
<path d="M3390 2815 c-9 -11 -10 -19 -2 -27 14 -14 32 -1 32 23 0 23 -13 25
-30 4z"/>
<path d="M1282 2721 c-14 -8 -6 -41 9 -41 14 0 23 30 13 40 -5 5 -15 6 -22 1z"/>
<path d="M3457 2678 c-27 -30 -34 -53 -19 -62 9 -5 62 57 62 73 0 22 -18 18
-43 -11z"/>
<path d="M3037 2549 c-6 -104 -25 -197 -66 -338 -23 -78 10 -8 42 89 38 113
53 236 39 320 -7 38 -9 28 -15 -71z"/>
<path d="M3427 2593 c-4 -3 -7 -12 -7 -20 0 -17 26 -17 33 1 8 21 -11 35 -26
19z"/>
<path d="M1208 2518 c-19 -29 -38 -62 -42 -73 -7 -19 -6 -18 13 2 12 12 21 26
21 31 0 5 8 20 18 33 18 24 35 59 28 59 -2 0 -20 -24 -38 -52z"/>
<path d="M3240 2281 c0 -5 5 -13 10 -16 6 -3 10 -2 10 4 0 5 -4 13 -10 16 -5
3 -10 2 -10 -4z"/>
<path d="M1435 2220 c-3 -5 -1 -10 4 -10 6 0 11 5 11 10 0 6 -2 10 -4 10 -3 0
-8 -4 -11 -10z"/>
<path d="M3189 2137 c-7 -15 -15 -25 -18 -22 -4 2 -7 -8 -8 -23 -1 -17 1 -21
5 -12 4 8 15 28 26 43 10 15 16 30 13 34 -4 3 -12 -6 -18 -20z"/>
<path d="M2288 2053 c7 -3 16 -2 19 1 4 3 -2 6 -13 5 -11 0 -14 -3 -6 -6z"/>
<path d="M2332 2049 c7 -5 36 -8 63 -8 60 1 50 6 -23 12 -32 2 -48 1 -40 -4z"/>
<path d="M2605 1940 c-60 -10 -155 -19 -210 -20 -113 -2 -100 -11 41 -31 69
-10 93 -9 160 6 92 20 144 40 144 54 0 13 5 13 -135 -9z"/>
<path d="M2875 1885 c-64 -49 -175 -104 -280 -138 -234 -75 -380 -73 -603 9
-90 33 -148 65 -165 92 -4 6 -21 12 -37 12 -17 0 -30 5 -30 11 0 5 5 7 12 3 7
-4 8 -3 4 5 -4 6 -11 9 -16 6 -5 -3 -20 -1 -32 6 -19 10 -18 7 7 -20 61 -65
210 -150 340 -193 62 -20 88 -23 230 -22 153 0 164 2 260 33 99 33 263 110
299 140 18 16 50 70 44 76 -2 2 -16 -8 -33 -20z"/>
<path d="M2975 1900 c-8 -13 25 -13 45 0 12 8 9 10 -12 10 -15 0 -30 -4 -33
-10z"/>
<path d="M1493 1846 c-36 -24 -63 -65 -63 -96 0 -33 53 -80 90 -80 47 0 90 47
90 99 0 36 -4 43 -43 69 l-43 28 -31 -20z"/>
<path d="M3505 1831 c-3 -5 -1 -12 5 -16 5 -3 10 1 10 9 0 18 -6 21 -15 7z"/>
<path d="M3473 1755 c-3 -9 -3 -18 0 -21 9 -9 27 6 27 22 0 19 -19 18 -27 -1z"/>
<path d="M3350 1715 c0 -8 7 -15 15 -15 8 0 15 7 15 15 0 8 -7 15 -15 15 -8 0
-15 -7 -15 -15z"/>
<path d="M2827 1654 c-14 -14 -7 -35 11 -32 9 2 17 10 17 17 0 16 -18 25 -28
15z"/>
<path d="M1535 1557 c-19 -15 -13 -37 9 -37 8 0 21 11 30 25 15 24 15 25 -2
25 -10 0 -26 -6 -37 -13z"/>
<path d="M1742 1398 c5 -15 28 -18 29 -3 0 6 -7 12 -17 13 -10 3 -15 -1 -12
-10z"/>
<path d="M1830 1345 c-10 -11 -10 -19 -2 -27 15 -15 44 -2 40 19 -4 23 -22 27
-38 8z"/>
<path d="M1391 4002 c-1 -18 -61 -52 -91 -52 -20 0 -22 -2 -10 -10 8 -5 30
-10 47 -10 36 0 68 36 60 67 -3 10 -5 12 -6 5z"/>
<path d="M3880 3840 c0 -23 25 -27 33 -6 7 16 -1 26 -20 26 -7 0 -13 -9 -13
-20z"/>
<path d="M1122 3831 c-8 -5 -12 -22 -10 -42 3 -30 6 -34 33 -34 25 0 30 4 33
28 5 44 -24 69 -56 48z"/>
<path d="M4191 3749 c-13 -10 -30 -19 -38 -19 -8 0 -12 -4 -9 -9 8 -13 42 -2
62 20 24 26 14 32 -15 8z"/>
<path d="M970 3669 c0 -5 5 -7 10 -4 6 3 10 8 10 11 0 2 -4 4 -10 4 -5 0 -10
-5 -10 -11z"/>
<path d="M4226 3448 c-9 -12 -16 -26 -16 -30 0 -12 31 -38 45 -38 7 0 21 7 29
16 9 8 16 22 16 29 0 18 -28 45 -45 45 -8 0 -21 -10 -29 -22z"/>
<path d="M4102 3398 c7 -19 38 -22 38 -4 0 10 -9 16 -21 16 -12 0 -19 -5 -17
-12z"/>
<path d="M3201 3334 c0 -11 3 -14 6 -6 3 7 2 16 -1 19 -3 4 -6 -2 -5 -13z"/>
<path d="M4140 3325 c0 -9 5 -15 11 -13 6 2 11 8 11 13 0 5 -5 11 -11 13 -6 2
-11 -4 -11 -13z"/>
<path d="M557 3213 c-4 -3 -7 -17 -7 -30 0 -18 6 -23 24 -23 30 0 40 13 31 40
-6 19 -35 27 -48 13z"/>
<path d="M4497 2932 c-27 -30 -68 -38 -84 -16 -11 16 -13 16 -13 2 0 -25 28
-48 59 -48 34 0 64 30 59 60 l-3 22 -18 -20z"/>
<path d="M517 2223 c-12 -11 -8 -23 8 -23 8 0 15 7 15 15 0 16 -12 20 -23 8z"/>
<path d="M767 1808 c-10 -17 -20 -28 -23 -25 -9 9 -65 -14 -58 -24 3 -5 20 -9
38 -9 35 0 76 34 76 63 0 28 -15 26 -33 -5z"/>
<path d="M877 1693 c-11 -10 -8 -51 3 -58 6 -3 14 4 19 17 12 34 -2 61 -22 41z"/>
<path d="M4295 1630 c-3 -5 -1 -10 4 -10 6 0 11 5 11 10 0 6 -2 10 -4 10 -3 0
-8 -4 -11 -10z"/>
<path d="M830 1605 c-10 -12 -10 -18 0 -29 16 -21 40 -9 40 20 0 27 -21 32
-40 9z"/>
<path d="M4255 1590 c-10 -33 12 -60 48 -59 28 0 30 1 10 9 -25 10 -43 39 -36
58 3 6 0 12 -5 12 -6 0 -13 -9 -17 -20z"/>
<path d="M4081 1424 c-30 -38 -27 -80 8 -115 33 -33 50 -35 90 -14 32 16 41
33 41 79 0 71 -96 105 -139 50z"/>
<path d="M1030 1410 c0 -5 4 -10 9 -10 6 0 13 5 16 10 3 6 -1 10 -9 10 -9 0
-16 -4 -16 -10z"/>
<path d="M728 1383 c7 -3 16 -2 19 1 4 3 -2 6 -13 5 -11 0 -14 -3 -6 -6z"/>
<path d="M3911 1232 c-15 -28 -2 -61 25 -68 41 -10 79 41 54 71 -18 21 -67 19
-79 -3z"/>
<path d="M3737 1093 c-13 -12 -7 -51 8 -57 34 -13 53 11 39 48 -6 16 -35 22
-47 9z"/>
<path d="M4041 1043 c-9 -4 -3 -10 18 -19 38 -16 39 -28 5 -51 -26 -16 -27
-16 -45 6 l-19 23 0 -34 c0 -65 73 -93 118 -45 58 62 1 151 -77 120z"/>
<path d="M1408 974 c-14 -31 -1 -57 31 -62 28 -4 51 14 51 42 0 50 -62 65 -82
20z"/>
<path d="M3452 944 c-12 -8 -22 -26 -22 -39 0 -25 33 -55 61 -55 20 0 49 31
49 53 0 20 -34 57 -53 57 -7 0 -23 -7 -35 -16z"/>
</g>
</svg>
